<?xml version="1.0" encoding="utf-8"?>
<!-- Generator: Adobe Illustrator 23.0.3, SVG Export Plug-In . SVG Version: 6.00 Build 0)  -->
<svg version="1.1" xmlns="http://www.w3.org/2000/svg" xmlns:xlink="http://www.w3.org/1999/xlink" x="0px" y="0px"
	 viewBox="0 0 522.9 530.5" style="enable-background:new 0 0 522.9 530.5;" xml:space="preserve">
<style type="text/css">
	.st0{fill:none;stroke:#202124;stroke-miterlimit:10;}
	.st1{fill:#FFFFFF;stroke:#202124;stroke-width:0.75;stroke-miterlimit:10;}
	.st2{fill:#5492ED;}
	.st3{fill:#EB506E;}
	.st4{fill:#F7F7F7;}
	.st5{fill:#AAAAAA;}
	.st6{fill:#B1CEFC;}
	.st7{fill:#A5A5A5;}
	.st8{fill:#F7CD5B;}
	.st9{fill:#040844;}
	.st10{fill:none;}
	.st11{fill:#202124;}
	.st12{fill:#CCCCCC;}
</style>
<g id="background_details">
	<g id="table_line">
		<line class="" style="stroke: #858585;" x1="11.9" y1="453.8" x2="481.3" y2="453.8"/>
	</g>
	<g id="books">
		<rect x="27.2" y="443.9" class="st1" width="78.4" height="9.8"/>
		<rect x="19.2" y="437.8" class="st1" width="76.9" height="6.1"/>
		<rect x="23.3" y="431.4" class="st2" width="77.8" height="6.2"/>
		<rect x="23.3" y="428.7" class="st1" width="82.3" height="2.7"/>
	</g>
	<g id="coffee">
		<path class="st1" d="M350,440.4c0.7-0.9,18.4-9.7,18.4-9.7l21.1,8.8l-12.9,10.7L350,440.4z"/>
		<polygon class="st3" points="379.7,442.6 364.2,442.6 358.9,411.8 384.5,411.8 		"/>
		<ellipse class="st1" cx="371.7" cy="411.9" rx="12.8" ry="4.5"/>
		<path class="st1" d="M382.1,409.8c-1.3,1-4.5,3.1-9.2,3.4c-6.1,0.4-10.4-2.6-11.6-3.4c0-1.4,0.1-2.9,0.1-4.3
			c2.7-0.6,6.2-1.1,10.3-1c4,0.1,7.5,0.7,10.1,1.3C381.9,407.2,382,408.5,382.1,409.8z"/>
		<ellipse class="st1" cx="371.7" cy="406.2" rx="10.4" ry="4.8"/>
	</g>
	<g id="tab_2">
		<rect x="0.4" y="0.4" class="st4" width="367.2" height="333.2"/>
	</g>
	<g id="tab">
		<rect x="310.2" y="219.5" class="st1" width="212.3" height="129.4"/>
		<rect x="309.8" y="219.2" class="st5" width="213.1" height="21.4"/>
		<path class="st0" d="M321,297.2c7.3-14.2,14.5-28.3,21.8-42.5c8.8,24.5,17.6,48.9,26.4,73.4c8.3-12.8,16.6-25.6,24.9-38.4
			c7.5,6.6,15,13.1,22.6,19.7c4.1-7.8,8.1-15.6,12.2-23.3c5.5,0.7,11.1,1.4,16.6,2.1c6.4,6.5,12.8,13,19.2,19.4
			c14.3-16.9,28.5-33.7,42.8-50.6"/>
		<line class="st0" x1="496" y1="261.6" x2="507.4" y2="257"/>
		<line class="st0" x1="507.4" y1="270.4" x2="507.4" y2="257"/>
	</g>
</g>
<g id="puzzle">
	<g id="puzzle_4">
		<path class="st2" d="M155,42l13.4,42.2c-0.1,0-0.2,0-0.3,0.1c-9.6,3.1-14.9,13.3-11.9,23c3.1,9.6,13.3,14.9,23,11.9
			c0.1,0,0.2-0.1,0.3-0.1l13.4,42.2l44.5-14.2c3.3,9.3,13.3,14.3,22.8,11.3c9.4-3,14.7-12.9,12-22.4l39.9-12.7L274.2,4.1L155,42z"/>
	</g>
	<g id="puzzle_3">
		<path class="st6" d="M130.1,105c0-10.1,8.2-18.3,18.3-18.3V42.5H23.3v125.1h45.3c0-0.1,0-0.2,0-0.4c0-10.1,8.2-18.3,18.3-18.3
			s18.3,8.2,18.3,18.3c0,0.1,0,0.2,0,0.4h43.2v-44.3C138.3,123.3,130.1,115.1,130.1,105z"/>
	</g>
	<g id="puzzle_2">
		<path class="st7" d="M130.1,236.4c0-10.1,8.2-18.3,18.3-18.3v-50.8h-43.2c0-0.1,0-0.3,0-0.4c0-10.1-8.2-18.3-18.3-18.3
			s-18.3,8.2-18.3,18.3c0,0.1,0,0.3,0,0.4H23.3v125.1h125.1v-37.7C138.3,254.7,130.1,246.5,130.1,236.4z"/>
	</g>
	<g id="puzzle_1">
		<path class="st3" d="M231.9,167.5c-0.3,9.9-8.3,17.8-18.3,17.8s-18-7.9-18.3-17.8h-46.7v50.7c-0.1,0-0.2,0-0.3,0
			c-10.1,0-18.3,8.2-18.3,18.3s8.2,18.3,18.3,18.3c0.1,0,0.2,0,0.3,0v37.9h125.1V167.5H231.9z"/>
	</g>
</g>
<g id="character">
	<g id="Layer_19">
		<path class="st8" d="M297.3,405.1c-0.7-1-0.7-2.8-0.6-6.3c0-1.6,0.1-3.7,0.5-6.7c0.1-1.2,0.6-4.9,1.9-8.9c0.4-1.1,0.9-2.4,2.2-3.3
			c0.9-0.6,1.8-0.7,2.4-0.7c-0.2,3.7,0.1,4.6,0.4,4.7c0.8,0.2,2.7-5.1,3.1-6.3c1.4-4.1,2-7.4,2.8-7.3c0.2,0,0.2,0.1,1.1,1.4
			c1,1.3,1,1.3,1.2,1.6c0.3,0.6,0.8,1.6,0.6,3.4c0.3,0.6,0.8,1.6,1.1,2.8c0.2,0.6,0.8,2.8,0.3,6.7c-0.3,2.6-0.8,4.5-1.6,7.2
			c-0.6,1.8-1.2,3.9-2.4,6.4c-1.9,4.1-2.8,6.1-4.7,7.1C303,407.9,299,407.3,297.3,405.1z"/>
		<path class="" style="fill: #ff6047;" d="M266.2,367.3c0.8,0.9,1.9,2.2,3.1,3.8c3.8,5.1,6.2,9.9,8.7,16.1c2.3,5.7,5.3,13.5,8,23.4
			c0.9-1.4,1.7-2.6,2.3-3.5c2-2.7,3.5-4.8,6.1-6.6c1.3-0.9,2.4-1.5,3.2-1.8c1-0.1,2.4,0,3.9,0.4c3.3,1,5.2,3.3,5.9,4.2
			c-0.1,2.6-0.2,6.3-0.7,10.6c-1.3,11.1-3.8,19.5-5.9,26.1c-2.2,6.9-1.8,4.1-5.4,14.8c-1.6,4.8-3.4,10.1-7.6,14.8
			c-1.8,2-3.6,3.4-5.9,3.3c-1.5-0.1-2.7-0.8-3.4-1.4c-1.5-1.2-3.7-3-6.1-5.5c-1.2-1.3-5-5.4-10.1-15c-2.2-4.2-5.5-10.8-8.7-19.9
			c-2.3-6.5-3.9-12.8-4.5-15.7C245.6,396.4,260.9,374.4,266.2,367.3z"/>
		<g>
			<path class="st10" d="M266.2,367.3c9.3,10.3,13.7,23.9,17.8,37.2c2.6,8.5,5.2,17,7.8,25.5"/>
		</g>
		<g>
			<path class="st10" d="M250.2,419.6c2.7,9.4,6.1,18.6,10.4,27.4c4.5,9.4,10.1,18.7,18.6,24.8"/>
		</g>
		<g>
			<path class="st10" d="M286.1,410.6c2.8-4.6,6.4-8.6,10.6-11.9"/>
		</g>
		<g>
			<path class="st10" d="M297.8,398.7c3.8-0.3,7.7,1.5,9.8,4.6"/>
		</g>
		<g>
			<path class="st10" d="M280,472.7c2.4,0.7,5-0.3,6.8-2c1.8-1.7,3-3.9,4.2-6.1c9.4-18.7,15.2-39.1,16.9-60"/>
		</g>
		<g>
			<path class="st10" d="M296.5,398.1c0.3-2,0.5-4.1,0.8-6.1c0.5-3.7,1-7.6,2.9-10.8c0.6-1,1.5-2,2.6-1.8"/>
		</g>
		<g>
			<g>
				<path class="st11" d="M303.8,381.4c0,0.8,0,1.6,0,2.4c0,0.5,0.8,0.5,0.8,0c0-0.8,0-1.6,0-2.4
					C304.5,380.9,303.8,380.9,303.8,381.4L303.8,381.4z"/>
			</g>
		</g>
		<g>
			<path class="st10" d="M304.5,383.7c0.8-1.1,1.3-2.4,1.8-3.7c1.3-3.3,2.5-6.6,3.8-9.9"/>
		</g>
		<g>
			<g>
				<path class="st11" d="M310.5,370.2c1,4.1,0.7,8.1-0.7,12c-0.2,0.5,0.6,0.7,0.7,0.2c1.4-4,1.7-8.2,0.7-12.4
					C311.1,369.5,310.4,369.7,310.5,370.2L310.5,370.2z"/>
			</g>
		</g>
		<g>
			<g>
				<path class="st11" d="M311.7,372.4c1.3,4.1,1.2,8.3-0.2,12.4c-0.2,0.5,0.6,0.7,0.7,0.2c1.5-4.2,1.5-8.5,0.2-12.8
					C312.3,371.7,311.6,371.9,311.7,372.4L311.7,372.4z"/>
			</g>
		</g>
		<g>
			<g>
				<path class="st11" d="M313.5,377.5c0.6,3.6,0.3,7.1-0.9,10.5c-0.2,0.5,0.6,0.7,0.7,0.2c1.3-3.6,1.6-7.2,0.9-10.9
					C314.1,376.8,313.4,377,313.5,377.5L313.5,377.5z"/>
			</g>
		</g>
		<g>
			<path class="st10" d="M314.4,382.8c0.6,4.2-1,8.4-2.6,12.3c-1.2,3.1-2.5,6.3-3.7,9.4"/>
		</g>
	</g>
	<g id="torso">
		<path class="" style="fill: #ff6047;" d="M153,360.5c-1.1,2.3-2.6,5.7-3.5,10c-1,4.9-1,8.7-0.9,11c0.4,14.5,0.6,21.7,1.8,29c0.5,3.4,2.6,16.3,8.8,34.7
			c4,11.8,10.3,27.8,20.4,45.7c6.5,3,18.6,7.5,34.1,7.1c21.4-0.5,36.6-9.8,42.7-13.9c0.7-2.5,1.6-5.9,2.6-9.9
			c2.1-8.7,4.4-19.5,6.6-35.9c3.2-23.6,4.8-35.3,3.7-50.1c-0.7-8.9-2-16.2-3.1-21c-1.1-0.6-2.8-1.5-4.8-2.5
			c-15-7.7-27.7-10.7-30.4-11.3c-6.5-1.5-19-3.9-34.9-3c-17.1,0.9-30,5.1-35.5,7.1C157.4,358.6,154.8,359.7,153,360.5z"/>
		<g>
			<path class="st10" d="M153,360.5c35.4-15.6,78.3-13.3,111.8,6.1"/>
		</g>
		<g>
			<path class="st10" d="M149.4,370.6c-4.6,37.2,7.2,74.6,23.7,108.2"/>
		</g>
		<g>
			<path class="st10" d="M267.3,370.2c5.3,29.8-0.1,60.4-5.6,90.2c-1.2,6.7-2.4,13.3-4.3,19.8"/>
		</g>
	</g>
	<g id="head">
		<circle class="st2" cx="226.1" cy="326" r="18.8"/>
		<path class="st3" d="M224.6,310.7c1.3,0.4,3.6,1.4,5.5,3.5c3.7,4,3.5,9,3.4,10.6c-0.2,4.2-1.9,7.2-2.9,8.7
			C228.7,325.9,226.6,318.3,224.6,310.7z"/>
		<path class="st2" d="M226.1,311.2c-2.2-2.9-6.7-8.5-12.5-8.3c-6.7,0.2-12.7,8-14.2,15.1c-1.1,5.2,1,6.3-0.3,10
			c-2.9,8.1-14.1,6-19.9,13.7c-6.3,8.3-1.7,22.2,2.3,29.3c1.4,2.6,9.2,16.4,21.9,16.5c11.4,0.1,19-10.7,22.5-15.7
			C238.9,353.3,238,326.5,226.1,311.2z"/>
	</g>
	<g id="chair">
		<path class="st12" d="M264.8,530.5h-114c-6.6,0-12-5.4-12-12V375.6c0-6.6,5.4-12,12-12h114c6.6,0,12,5.4,12,12v142.9
			C276.8,525.1,271.4,530.5,264.8,530.5z"/>
	</g>
</g>
</svg>
